<?xml version="1.0" encoding="UTF-8"?>
<svg width="640" height="480" viewBox="0 0 640 480" fill="none" xmlns="http://www.w3.org/2000/svg" role="img" aria-labelledby="title desc">
  <title id="title">Foguete quebrado com personagem surpreso</title>
  <desc id="desc">Ilustração colorida de um foguete caído soltando fumaça e uma pessoa surpresa com pontos de exclamação vermelhos sobre a cabeça.</desc>
  <rect width="640" height="480" fill="#ffffff"/>
  <g id="ground" opacity="0.1">
    <ellipse cx="250" cy="360" rx="220" ry="60" fill="#0F172A"/>
  </g>
  <g id="rocket">
    <path d="M120 250C160 170 250 110 330 90C350 170 330 260 290 330L210 320L120 250Z" fill="#8B5CF6"/>
    <path d="M210 320L280 330C260 360 230 380 190 380C160 350 150 320 150 320L210 320Z" fill="#1E293B"/>
    <path d="M118 250C130 220 165 190 200 180L240 220L210 320L150 320C140 300 120 260 118 250Z" fill="#EF4444"/>
    <path d="M200 180C225 160 250 150 280 140L320 210L240 220L200 180Z" fill="#0EA5E9"/>
    <circle cx="255" cy="220" r="40" fill="#1E293B" stroke="#EC4899" stroke-width="10"/>
    <circle cx="255" cy="220" r="20" fill="#F8FAFC"/>
    <path d="M140 300C160 300 200 320 210 320C210 320 200 340 180 340C160 340 130 320 130 320L140 300Z" fill="#F97316"/>
    <path d="M312 146C340 164 354 192 360 220C330 220 300 214 280 200C286 180 296 162 312 146Z" fill="#F97316"/>
    <path d="M180 340C210 340 240 360 260 380C220 380 180 370 150 350L180 340Z" fill="#0F172A" opacity="0.15"/>
  </g>
  <g id="fire">
    <path d="M320 210C350 230 360 260 354 294C340 276 324 264 310 270C316 246 316 228 320 210Z" fill="#FDBA74"/>
    <path d="M310 270C326 262 340 270 350 290C332 296 320 306 308 320C300 300 298 284 310 270Z" fill="#F97316"/>
    <path d="M300 320C316 312 332 320 340 336C320 340 306 352 294 368C288 348 288 332 300 320Z" fill="#EA580C"/>
  </g>
  <g id="smoke" opacity="0.4">
    <circle cx="320" cy="200" r="30" fill="#CBD5F5"/>
    <circle cx="350" cy="220" r="26" fill="#E2E8F0"/>
    <circle cx="360" cy="250" r="24" fill="#E2E8F0"/>
    <circle cx="390" cy="250" r="18" fill="#CBD5F5"/>
  </g>
  <g id="character">
    <path d="M440 190C470 190 490 216 490 248C490 290 470 330 430 330C400 330 380 300 380 270C380 230 405 190 440 190Z" fill="#8B5CF6"/>
    <path d="M420 324C440 324 462 338 474 356C458 370 438 378 414 378C396 360 404 324 420 324Z" fill="#0F172A"/>
    <path d="M430 330C450 330 464 344 470 366C452 366 436 360 420 348C420 338 424 332 430 330Z" fill="#1E293B"/>
    <path d="M420 210C420 196 432 184 446 184C460 184 472 196 472 210C472 224 460 236 446 236C432 236 420 224 420 210Z" fill="#F97316"/>
    <path d="M412 356C412 344 422 334 434 334C446 334 456 344 456 356V388H412V356Z" fill="#0F172A"/>
    <path d="M390 268C400 252 422 246 440 252C444 276 434 298 414 306C400 298 390 282 390 268Z" fill="#FACC15"/>
    <circle cx="444" cy="164" r="24" fill="#F8FAFC" stroke="#0F172A" stroke-width="6"/>
    <circle cx="452" cy="164" r="8" fill="#0F172A"/>
    <path d="M438 156C432 146 420 148 414 160" stroke="#0F172A" stroke-width="6" stroke-linecap="round"/>
  </g>
  <g id="exclamation">
    <rect x="500" y="80" width="26" height="100" rx="12" fill="#EF4444"/>
    <rect x="542" y="64" width="26" height="100" rx="12" fill="#EF4444"/>
    <circle cx="513" cy="208" r="18" fill="#EF4444"/>
    <circle cx="555" cy="190" r="18" fill="#EF4444"/>
  </g>
</svg>
